Coordinates
version=1
nRows=19
nColumns=36
inDegrees=yes

Units are S.I. units (second, meters, Newtons, ...)
If the header above contains a line with 'inDegrees', this indicates whether rotational values are in degrees (yes) or radians (no).

endheader
time	pelvis_tilt	pelvis_list	pelvis_rotation	pelvis_tx	pelvis_ty	pelvis_tz	hip_flexion_r	hip_adduction_r	hip_rotation_r	knee_angle_r	knee_angle_r_beta	ankle_angle_r	subtalar_angle_r	mtp_angle_r	hip_flexion_l	hip_adduction_l	hip_rotation_l	knee_angle_l	knee_angle_l_beta	ankle_angle_l	subtalar_angle_l	mtp_angle_l	lumbar_extension	lumbar_bending	lumbar_rotation	arm_flex_r	arm_add_r	arm_rot_r	elbow_flex_r	pro_sup_r	arm_flex_l	arm_add_l	arm_rot_l	elbow_flex_l	pro_sup_l
      0.00000000	     -3.00291733	     -4.27348469	      6.99039119	      0.61772186	      0.94706146	     -0.12670133	     25.20486082	     -2.57451065	     -2.28277716	     45.33672959	      0.79127520	    -20.68370622	    -24.03127727	     -6.65508616	      5.14236438	      1.70066003	      8.94250701	      5.75126359	      0.10037849	      6.11166558	     -8.97674712	     -6.65508616	      3.74467725	     -3.11377549	     -5.41992364	     45.55334727	     13.18195551	     65.81584877	    128.16273346	    104.98664922	     38.23638578	      9.67595293	     63.28286102	    118.66620149	    100.72444471
      0.01666670	     -3.34754117	     -4.32680201	      8.20833331	      0.62023814	      0.94373113	     -0.12744652	     25.11018197	     -3.37873986	     -3.15901429	     44.13710520	      0.77033781	    -16.92478182	    -17.98270572	     -6.69414660	      4.14061337	      1.94599860	      9.53983856	      3.92450084	      0.06849546	      5.60765190	     -8.14147133	     -6.69414660	      4.19348086	     -3.60249442	     -6.99069673	     47.22265233	     13.51624852	     67.63186382	    130.21845866	    105.46469722	     38.89728582	      8.77279835	     66.02635000	    122.85148332	     99.56446537
      0.03333330	     -4.26780001	     -4.00032420	      7.86609555	      0.62134750	      0.94436292	     -0.12679813	     26.18255687	     -3.58782815	     -2.80277056	     43.99760745	      0.76790311	    -16.52726790	    -16.84858781	     -6.77483472	      4.55518132	      2.36636789	      7.72739283	      2.97236964	      0.05187764	      4.03457770	     -7.10212857	     -6.77483472	      5.47961242	     -3.95489717	     -6.45644313	     46.36780171	     13.47936719	     68.94578939	    130.81242383	    104.00304621	     38.17536883	      7.64265986	     66.03590357	    125.04311859	     97.12578456
      0.05000000	     -4.46551533	     -3.77502577	      7.96157507	      0.62239552	      0.94196864	     -0.12726050	     26.90991983	     -4.01385327	     -2.52605106	     45.09351930	      0.78703038	    -15.69311148	    -16.29775824	     -6.88701913	      4.19746510	      2.71384331	      7.51898992	      1.92124117	      0.03353198	      3.75715841	     -6.36670334	     -6.88701913	      5.58467094	     -4.25461376	     -6.87579541	     46.24460484	     13.96813739	     70.94101420	    130.38619768	    103.95235023	     38.08833187	      6.61568829	     64.87438027	    124.70121380	     92.60255130
      0.06666670	     -4.96788289	     -3.53597329	      7.99328879	      0.62299109	      0.94136002	     -0.12730542	     27.61511924	     -4.38908272	     -2.28704079	     45.62477113	      0.79630248	    -14.85411237	    -15.74787016	     -7.14418456	      4.29180341	      2.97788706	      6.76306956	      1.23767583	      0.02160152	      3.69468222	     -5.65616833	     -7.14418456	      6.16878528	     -4.55715546	     -6.38291161	     45.62172487	     13.87880729	     71.88505310	    130.25688161	    104.52555712	     37.96007718	      7.36109176	     65.83848136	    124.57861932	     85.67030610
      0.08333330	     -4.95465144	     -3.29564905	      7.95400146	      0.62320253	      0.94140526	     -0.12728911	     27.72159621	     -4.50908047	     -1.86587934	     45.84594271	      0.80016265	    -14.78510584	    -15.71060641	     -7.27189019	      4.09969218	      3.12195634	      5.89465611	      0.89024752	      0.01553775	      3.86956641	     -4.49357272	     -7.27189019	      6.01056996	     -4.77859344	     -6.15888648	     45.19614170	     13.88954106	     72.78208949	    129.92286716	     97.58229056	     37.97334527	      6.88508075	     65.04858566	    123.57710389	     80.28403274
      0.10000000	     -5.10524889	     -3.20320885	      8.04510447	      0.62320588	      0.94121785	     -0.12744301	     28.00675582	     -4.70289875	     -1.73365612	     46.09355332	      0.80448427	    -14.48782152	    -15.62838443	     -7.40151737	      4.21448787	      3.23663290	      5.79569739	      0.75660321	      0.01320522	      3.93146646	     -4.06982394	     -7.40151737	      6.04340216	     -4.90789556	     -6.20226604	     44.55937960	     13.99274645	     72.59282143	    129.80720150	    103.39568393	     37.86525060	      6.84717377	     63.99313508	    122.74413237	     80.46893802
      0.11666670	     -5.06519291	     -2.99533524	      8.04921281	      0.62323979	      0.94118786	     -0.12735930	     27.91185154	     -4.81826908	     -1.50918968	     46.04320528	      0.80360553	    -14.42554430	    -15.59604203	     -7.45599171	      4.15010868	      3.41594437	      5.61005707	      0.66398002	      0.01158864	      3.98051415	     -3.71630609	     -7.45599171	      5.86172575	     -5.16078724	     -6.13660715	     44.25186453	     14.09826290	     72.68295442	    129.56457808	    102.42695899	     37.67988571	      6.67268715	     63.20709823	    122.21545920	     78.60385749
      0.13333330	     -4.92999910	     -2.91723459	      8.09671605	      0.62302879	      0.94137381	     -0.12728423	     27.76391772	     -4.84404447	     -1.39175377	     46.07043637	      0.80408080	    -14.59893388	    -15.58647826	     -7.48988622	      4.03066655	      3.43988257	      5.28266864	      0.62494214	      0.01090730	      4.19389349	     -2.90490788	     -7.48988622	      5.57021786	     -5.24707716	     -6.09117526	     44.17624582	     14.17449968	     72.57782946	    129.44428855	    102.28097547	     37.51932274	      6.68421420	     62.57656931	    121.89225681	     77.74324844
      0.15000000	     -4.75185685	     -2.86709814	      8.11722831	      0.62260091	      0.94366830	     -0.12708835	     27.45266386	     -4.78347776	     -1.29070641	     45.83116827	      0.79990479	    -14.89287265	    -15.60197518	     -7.49572135	      3.83775728	      3.44738497	      4.99224811	      0.61099407	      0.01066386	      4.13981285	     -2.44776140	     -7.49572135	      5.22493747	     -5.30141336	     -6.01758597	     44.21636767	     14.23255335	     72.36141290	    129.50301981	    101.77943826	     37.38684788	      6.71706414	     62.15465247	    121.76385565	     76.91334493
      0.16666670	     -4.51580763	     -2.92171253	      8.12135490	      0.62236386	      0.94381521	     -0.12699076	     27.15903382	     -4.64790141	     -1.29191542	     45.75191550	      0.79852156	    -15.03802111	    -15.58026716	     -7.49932294	      3.59913090	      3.32988818	      4.70489405	      0.60636094	      0.01058299	      4.14000385	     -1.98112747	     -7.49932294	      4.82018065	     -5.18990115	     -6.02027709	     44.40489643	     14.34807368	     72.20205677	    129.59739753	    101.45158903	     37.26201340	      6.82563850	     61.79802756	    121.80965978	     76.57689386
      0.18333330	     -4.29023958	     -2.92487808	      7.97176894	      0.62238407	      0.94378820	     -0.12679241	     26.94176209	     -4.53772156	     -1.16760216	     45.75023828	      0.79849229	    -15.12945864	    -15.60202371	     -7.49964694	      3.37588979	      3.26748794	      4.47236158	      0.60264271	      0.01051810	      4.19980645	     -1.84534810	     -7.49964694	      4.45619146	     -5.15273445	     -5.80136485	     44.55475747	     14.37323454	     71.94862174	    129.86229805	    101.18484178	     37.22491557	      7.00297847	     61.61407208	    121.80251347	     76.49610027
      0.20000000	     -4.27126343	     -2.84174334	      7.93063763	      0.62215532	      0.94379890	     -0.12649653	     26.89298035	     -4.57306848	     -1.08227777	     45.72950816	      0.79813048	    -15.02632186	    -15.43172915	     -7.49987953	      3.35497279	      3.30720438	      3.80830532	      0.60881156	      0.01062577	      4.33694329	     -0.81526949	     -7.49987953	      4.39413503	     -5.25353880	     -5.80229365	     44.79905270	     14.50667421	     72.65968824	    130.09182569	     88.41937537	     37.16166693	      6.97219116	     61.88953687	    122.23165880	     69.97210958
      0.21666670	     -3.84759593	     -2.92661804	      7.92863205	      0.62200503	      0.94407036	     -0.12655837	     26.37893072	     -4.36887136	     -1.12290622	     45.42067865	      0.79274039	    -15.55629353	    -15.92745342	     -7.49994709	      2.90997784	      3.16875034	      4.22516086	      0.60055270	      0.01048162	      4.16359072	     -1.85733979	     -7.49994709	      3.72763797	     -5.04621775	     -5.59542471	     44.99421643	     14.38946966	     71.75648222	    129.81439089	    100.64741368	     37.31202412	      7.24844857	     61.47953315	    122.01052197	     76.50402731
      0.23333330	     -3.68435092	     -2.84038486	      7.91634421	      0.62221048	      0.94213212	     -0.12653055	     26.22913877	     -4.40094765	     -1.03656905	     45.54658986	      0.79493796	    -15.40249338	    -16.08062668	     -7.49998419	      2.71464670	      3.24694799	      4.20308315	      0.61751553	      0.01077768	      4.16405080	     -1.90481659	     -7.49998419	      3.50583895	     -5.11830977	     -5.41442248	     45.30632938	     14.42037651	     71.48776618	    129.69686209	    100.59806928	     37.36407408	      7.52538400	     61.75255897	    122.60010177	     76.29458751
      0.25000000	     -3.53855000	     -2.81677490	      7.77075422	      0.62181118	      0.94444259	     -0.12622958	     26.05480112	     -4.33128729	     -0.91224991	     45.45264918	      0.79329838	    -15.39220759	    -16.09154849	     -7.49999175	      2.53812046	      3.24646355	      4.06183485	      0.60537955	      0.01056587	      4.18144326	     -1.81873446	     -7.49999175	      3.35174378	     -5.08548210	     -5.17696795	     45.54956022	     14.44343241	     71.59804042	    129.85993824	    100.39535378	     37.40923517	      8.01256355	     62.34073751	    123.07806358	     76.64612722
      0.26666670	     -3.40977230	     -2.88333912	      7.68920252	      0.62173830	      0.94461001	     -0.12614965	     25.95222910	     -4.21698950	     -0.69023002	     45.23277257	      0.78946081	    -15.28481237	    -15.92039588	     -7.49999836	      2.35744449	      3.11625055	      4.16131988	      0.60777994	      0.01060776	      4.29187149	     -1.65441692	     -7.49999836	      3.12207941	     -4.94860107	     -5.07219107	     45.66656108	     14.28949696	     71.46391205	    129.85568736	    100.00612042	     37.55471263	      8.17558177	     62.54010265	    123.25788161	     76.63720351
      0.28333330	     -3.33899140	     -2.87985755	      7.65368468	      0.62215623	      0.94213846	     -0.12622826	     25.91890234	     -4.19066700	     -0.63535138	     45.40340386	      0.79243889	    -15.30192012	    -15.84866588	     -7.49999912	      2.23457742	      3.08280645	      4.51444816	      0.60669913	      0.01058890	      4.39933814	     -1.82828505	     -7.49999912	      3.05984923	     -4.96537429	     -4.94347838	     45.73533334	     14.05911466	     71.45248128	    130.15861194	     99.83686820	     37.67968221	      8.41679412	     63.02337553	    123.61102241	     76.82770293
      0.30000000	     -3.29272635	     -2.89949328	      7.48592032	      0.62212731	      0.94244931	     -0.12608944	     25.96915654	     -4.11813597	     -0.56301242	     45.59467016	      0.79577712	    -15.12561604	    -15.79555632	     -7.49999965	      2.14385249	      3.03352903	      4.60720611	      0.61117012	      0.01066693	      4.57251072	     -1.84808374	     -7.49999965	      3.07476142	     -4.91492172	     -4.79784170	     45.79590813	     14.08666839	     71.61123112	    130.44540817	     99.39432727	     37.66938864	      8.56821476	     63.36152281	    124.04785324	     77.12904601
